<svg width="116.000000" height="24.000000" viewBox="0 0 116 24" fill="none" xmlns="http://www.w3.org/2000/svg" xmlns:xlink="http://www.w3.org/1999/xlink">
	<desc>
			Created with Pixso.
	</desc>
	<defs/>
	<path id="Vector" d="M14.21 5.51C12.15 5.37 10.4 6.63 9.43 6.63C8.44 6.63 6.91 5.55 5.3 5.58C3.18 5.61 1.22 6.77 0.12 8.62C-2.08 12.34 -0.44 17.84 1.71 20.86C2.76 22.33 4.01 23.99 5.66 23.93C7.24 23.87 7.84 22.94 9.76 22.94C11.67 22.94 12.21 23.93 13.88 23.9C15.59 23.87 16.67 22.4 17.71 20.92C18.92 19.21 19.41 17.55 19.44 17.46C19.4 17.45 16.12 16.22 16.09 12.55C16.06 9.48 18.67 8 18.79 7.93C17.31 5.81 15.01 5.57 14.21 5.51ZM96.5 17.51L96.5 17.84C96.5 21.05 94.09 23.92 89.24 23.92C84.4 23.92 81.53 20.97 81.53 15.82L81.53 13.66C81.53 8.57 84.42 5.53 89.25 5.53C93.79 5.53 96.5 8.31 96.5 11.77L96.5 11.96L92.86 11.96C92.86 10.2 91.71 8.63 89.28 8.63C86.69 8.63 85.38 10.31 85.38 13.66L85.38 15.82C85.38 19.21 86.67 20.79 89.3 20.79C91.92 20.79 92.86 19.35 92.86 17.51L96.5 17.51ZM30.3 18.53L30.36 18.53L33.62 5.81L37.48 5.81L40.75 18.53L40.81 18.53L43.84 5.81L47.9 5.81L42.81 23.62L38.95 23.62L35.58 11.45L35.52 11.45L32.14 23.62L28.32 23.62L23.21 5.81L27.27 5.81L30.3 18.53ZM104.35 12.96L111.84 12.96L111.84 5.81L115.66 5.81L115.66 23.62L111.84 23.62L111.84 16.03L104.35 16.03L104.35 23.62L100.55 23.62L100.55 5.81L104.35 5.81L104.35 12.96ZM79.07 5.81L79.07 8.89L73.61 8.89L73.61 23.62L69.82 23.62L69.82 8.89L64.36 8.89L64.36 5.81L79.07 5.81ZM58.53 5.81L64.43 23.62L60.36 23.62L59.05 19.13L53.26 19.13L51.93 23.62L48.13 23.62L54.04 5.81L58.53 5.81ZM58.26 16.39L56.2 9.32L56.16 9.32L54.07 16.39L58.26 16.39ZM12.85 3.62C11.97 4.6 10.59 5.35 9.23 5.24C9.04 3.85 9.75 2.4 10.55 1.49C11.46 0.46 12.98 -0.3 14.24 -0.35C14.4 1.07 13.81 2.5 12.94 3.52L12.9 3.57L12.85 3.62Z" fill="#D6DAE5" fill-opacity="1.000000" fill-rule="evenodd"/>
</svg>
