<svg width="116.000000" height="24.000000" viewBox="0 0 116 24" fill="none" xmlns="http://www.w3.org/2000/svg" xmlns:xlink="http://www.w3.org/1999/xlink">
	<desc>
			Created with Pixso.
	</desc>
	<defs/>
	<path id="Vector" d="M81.26 15.4C79.56 14.97 79.56 14.95 79.56 14.05C79.56 13.44 79.62 13.15 81.02 13.15C81.98 13.15 83.39 13.31 84.29 13.47C84.42 13.48 84.55 13.46 84.65 13.38C84.75 13.31 84.82 13.19 84.83 13.07L85.09 11.05C85.11 10.82 84.96 10.61 84.72 10.55C83.67 10.32 82.21 10.16 81.01 10.16C76.8 10.16 75.94 11.7 75.94 14.01C75.94 16.56 76.43 17.41 79.65 18.17C81.77 18.67 81.77 19.03 81.77 19.64C81.77 20.44 81.69 20.72 80.31 20.72C79.19 20.72 77.9 20.55 76.76 20.26C76.63 20.23 76.51 20.25 76.4 20.31C76.29 20.38 76.21 20.49 76.19 20.61L75.84 22.54C75.8 22.76 75.93 22.98 76.15 23.05C77.39 23.44 79.17 23.7 80.48 23.7C84.55 23.7 85.38 22.04 85.38 19.56C85.38 16.82 84.88 16.31 81.25 15.38L81.26 15.4L81.26 15.4ZM70.7 15.4C69.01 14.97 69.01 14.95 69.01 14.05C69.01 13.44 69.07 13.15 70.47 13.15C71.42 13.15 72.84 13.31 73.74 13.47C73.87 13.48 73.99 13.46 74.1 13.38C74.2 13.31 74.26 13.19 74.28 13.07L74.54 11.05C74.57 10.82 74.41 10.61 74.18 10.55C73.14 10.32 71.69 10.16 70.48 10.16C66.29 10.16 65.42 11.7 65.42 14.01C65.42 16.56 65.91 17.41 69.13 18.17C71.25 18.67 71.25 19.03 71.25 19.64C71.25 20.44 71.18 20.72 69.79 20.72C68.67 20.72 67.38 20.55 66.24 20.26C66.11 20.23 65.98 20.25 65.88 20.31C65.77 20.38 65.69 20.49 65.66 20.61L65.3 22.53C65.26 22.75 65.39 22.97 65.61 23.04C66.85 23.43 68.63 23.69 69.94 23.69C74.01 23.69 74.84 22.03 74.84 19.56C74.84 16.81 74.34 16.3 70.71 15.37L70.7 15.39L70.7 15.4ZM33.35 6.1C33.29 5.92 33.12 5.79 32.91 5.79L28.6 5.79C28.4 5.79 28.22 5.92 28.16 6.1L22.71 22.85C22.67 22.98 22.69 23.13 22.78 23.25C22.87 23.36 23.01 23.43 23.15 23.43L26.12 23.43C26.33 23.43 26.51 23.3 26.57 23.11L30.32 10.79C30.32 10.79 30.42 10.48 30.76 10.48C31.1 10.48 31.19 10.79 31.19 10.79L32.93 16.64L30.6 16.64C30.4 16.64 30.22 16.78 30.16 16.97L29.49 19.28C29.45 19.42 29.49 19.57 29.56 19.67C29.65 19.79 29.8 19.85 29.94 19.85L33.92 19.85L34.97 23.12C35.03 23.3 35.21 23.43 35.41 23.43L38.38 23.43C38.52 23.43 38.67 23.36 38.75 23.24C38.84 23.13 38.87 22.98 38.83 22.84L33.38 6.07L33.36 6.1L33.35 6.1ZM90.09 10.43L87.36 10.43C87.11 10.43 86.9 10.63 86.9 10.88L86.9 23.01C86.9 23.26 87.11 23.47 87.36 23.47L90.1 23.47C90.35 23.47 90.56 23.27 90.56 23.02L90.56 10.89C90.56 10.64 90.36 10.44 90.1 10.44L90.09 10.43L90.09 10.43ZM51.35 5.46L48.62 5.46C48.36 5.46 48.16 5.66 48.16 5.91L48.16 23.01C48.16 23.26 48.36 23.47 48.62 23.47L51.35 23.47C51.61 23.47 51.81 23.27 51.81 23.02L51.81 5.92C51.81 5.67 51.61 5.47 51.36 5.47L51.35 5.46L51.35 5.46ZM112.77 10.17C111.33 10.17 109.36 10.66 107.69 11.42L107.49 10.76C107.44 10.57 107.25 10.44 107.05 10.44L105.03 10.44C104.77 10.44 104.56 10.64 104.56 10.89L104.56 23.02C104.56 23.27 104.76 23.47 105.02 23.47L107.75 23.47C108.01 23.47 108.21 23.27 108.21 23.02L108.21 14.62C109.2 14.13 110.58 13.63 111.41 13.63C112.02 13.63 112.25 13.85 112.25 14.45L112.25 23.01C112.25 23.26 112.46 23.46 112.71 23.46L115.45 23.46C115.7 23.46 115.91 23.26 115.91 23.01L115.91 14.1C115.91 11.5 114.85 10.18 112.77 10.18L112.77 10.18L112.77 10.17ZM9.5 17.39C9.43 17.32 9.32 17.24 9.15 17.24C8.92 17.24 8.78 17.39 8.73 17.47C7.46 19.36 6.8 21.15 6.71 22.94C6.71 23.07 6.76 23.21 6.85 23.3C6.94 23.41 7.08 23.46 7.22 23.46L10.24 23.46C10.51 23.46 10.73 23.27 10.75 23.02C10.82 22.15 11.09 21.29 11.6 20.38C11.77 20.07 11.64 19.77 11.54 19.65C11.04 19.01 10.42 18.34 9.51 17.41L9.51 17.4L9.5 17.39ZM60.21 18.68L60.21 20.24C59.76 20.49 58.94 20.82 57.95 20.82C57.1 20.82 56.84 20.58 56.84 19.74C56.84 18.95 57 18.7 58.01 18.7L60.21 18.7L60.21 18.68L60.21 18.68ZM99.03 18.68L99.03 20.24C98.57 20.49 97.75 20.82 96.77 20.82C95.92 20.82 95.66 20.58 95.66 19.74C95.66 18.95 95.82 18.7 96.82 18.7L99.03 18.7L99.03 18.68L99.03 18.68ZM46.3 20.87C46.28 20.75 46.21 20.64 46.1 20.57C45.99 20.49 45.86 20.47 45.74 20.5C45.24 20.62 44.79 20.68 44.42 20.68C43.75 20.68 43.44 20.4 43.44 19.76L43.44 13.33L46.09 13.33C46.35 13.33 46.55 13.13 46.55 12.88L46.55 10.88C46.55 10.63 46.34 10.42 46.09 10.42L43.45 10.42L43.45 7.34C43.45 7.21 43.39 7.09 43.28 7C43.18 6.91 43.05 6.88 42.92 6.89L40.19 7.26C39.96 7.29 39.79 7.48 39.79 7.71L39.79 10.43L38.3 10.43C38.04 10.43 37.83 10.63 37.83 10.88L37.83 12.89C37.83 13.14 38.05 13.35 38.31 13.35L39.79 13.35L39.79 20.18C39.79 22.53 41.06 23.72 43.57 23.72C44.28 23.72 45.49 23.56 46.28 23.3C46.49 23.23 46.62 23.02 46.59 22.8L46.29 20.88L46.3 20.87L46.3 20.87ZM58.38 10.18C56.99 10.18 55.31 10.39 54.09 10.72C53.85 10.78 53.71 11 53.74 11.22L54.06 13.15C54.08 13.27 54.15 13.37 54.25 13.44C54.35 13.51 54.48 13.53 54.6 13.51C55.74 13.3 56.91 13.18 57.9 13.18C59.87 13.18 60.19 13.59 60.19 14.88L60.19 16.01L57.27 16.01C54.48 16.01 53.28 17.12 53.28 19.76C53.28 22.27 54.59 23.7 56.87 23.7C58.2 23.7 59.52 23.35 60.63 22.69L60.75 23.11C60.8 23.3 60.98 23.43 61.19 23.43L63.41 23.43C63.67 23.43 63.87 23.23 63.87 22.98L63.87 14.92C63.87 11.45 62.39 10.16 58.39 10.16L58.37 10.17L58.38 10.18ZM97.19 10.18C95.8 10.18 94.13 10.39 92.91 10.72C92.68 10.78 92.53 11 92.58 11.22L92.89 13.15C92.91 13.27 92.99 13.37 93.09 13.44C93.19 13.51 93.32 13.53 93.44 13.51C94.57 13.3 95.74 13.18 96.74 13.18C98.71 13.18 99.01 13.59 99.01 14.88L99.01 16.01L96.1 16.01C93.3 16.01 92.1 17.12 92.1 19.76C92.1 22.27 93.41 23.7 95.69 23.7C97.01 23.7 98.33 23.35 99.44 22.69L99.56 23.11C99.61 23.3 99.8 23.43 100.01 23.43L102.21 23.43C102.46 23.43 102.67 23.23 102.67 22.98L102.67 14.92C102.67 11.45 101.19 10.16 97.19 10.16L97.2 10.17L97.19 10.18ZM21.78 5.54C21.69 5.48 21.59 5.44 21.48 5.44C21.41 5.44 21.35 5.45 21.3 5.48C20.2 5.88 19.11 6.18 18.11 6.41C17.91 6.46 17.73 6.6 17.67 6.78C16.94 8.73 15.07 10.58 13.12 12.51C13.05 12.58 12.94 12.69 12.75 12.69C12.57 12.69 12.46 12.6 12.39 12.52C10.42 10.59 8.57 8.75 7.84 6.8C7.76 6.62 7.6 6.48 7.4 6.43C6.4 6.2 5.29 5.89 4.21 5.49C4.16 5.47 4.09 5.47 4.03 5.47C3.92 5.47 3.81 5.5 3.73 5.57C3.59 5.66 3.52 5.83 3.53 5.99C3.7 7.6 4.36 9.18 5.55 10.84C6.67 12.39 8.11 13.83 9.53 15.23C12.11 17.79 14.56 20.21 14.78 23.03C14.8 23.28 15.02 23.47 15.27 23.47L18.32 23.47C18.45 23.47 18.59 23.42 18.68 23.32C18.78 23.23 18.83 23.1 18.82 22.96C18.72 21.09 17.99 19.21 16.59 17.21C16.3 16.8 15.99 16.39 15.66 15.99C15.52 15.83 15.58 15.63 15.68 15.53L15.99 15.23C17.4 13.84 18.85 12.4 19.97 10.84C21.16 9.19 21.81 7.62 21.98 6.01C22 5.84 21.92 5.67 21.79 5.57L21.8 5.56L21.78 5.54ZM12.77 6.99C13.72 6.99 14.27 6.94 14.47 6.94C14.69 6.94 14.92 7.11 14.92 7.38C14.92 7.45 14.9 7.5 14.89 7.55C14.76 7.88 14.18 9.06 13.1 10.07C12.97 10.19 12.85 10.21 12.75 10.21C12.66 10.21 12.52 10.19 12.4 10.07C11.32 9.06 10.75 7.88 10.62 7.55C10.6 7.5 10.58 7.44 10.58 7.37C10.58 7.11 10.81 6.91 11.04 6.91C11.24 6.91 11.79 6.97 12.74 6.97L12.75 6.97L12.77 6.98L12.77 6.99ZM90.09 5.47L87.37 5.47C87.11 5.47 86.9 5.66 86.9 5.91L86.9 8.24C86.9 8.49 87.11 8.69 87.37 8.69L90.1 8.69C90.35 8.69 90.56 8.5 90.56 8.25L90.56 5.9C90.56 5.65 90.35 5.45 90.1 5.45L90.09 5.47L90.09 5.47ZM26.07 -0.1C25.95 -0.26 25.76 -0.35 25.56 -0.35C25.46 -0.35 25.36 -0.33 25.27 -0.28C21.54 1.7 17.21 2.75 12.76 2.75C8.31 2.75 3.99 1.7 0.26 -0.28C0.17 -0.33 0.07 -0.35 -0.03 -0.35C-0.23 -0.35 -0.43 -0.26 -0.54 -0.1C-0.72 0.11 -0.73 0.5 -0.43 0.73C1.44 2.07 3.5 3.13 5.69 3.86C7.97 4.6 10.35 4.99 12.76 4.99C15.18 4.99 17.56 4.6 19.83 3.86C22.02 3.13 24.08 2.07 25.96 0.73C26.26 0.5 26.25 0.11 26.07 -0.12L26.07 -0.1L26.07 -0.1Z" fill="#5982E7" fill-opacity="1.000000" fill-rule="evenodd"/>
</svg>
