<svg width="116.000000" height="29.000000" viewBox="0 0 116 29" fill="none" xmlns="http://www.w3.org/2000/svg" xmlns:xlink="http://www.w3.org/1999/xlink">
	<desc>
			Created with Pixso.
	</desc>
	<defs/>
	<path id="Vector" d="M104.84 17.63C104.84 15.33 103.87 12.66 100.85 8.94L93.57 0L83.44 0L89.21 6.27C90.18 7.32 91.42 8.26 91.42 8.26C90.02 7.48 88.24 7.16 86.84 7.16C83.5 7.16 80.1 7.84 77.08 9.47C73.85 11.19 71.69 14.07 71.69 17.89C71.69 20.82 73.04 23.07 74.77 24.8C78.65 28.57 85.71 28.93 88.29 28.93C92.12 28.93 98.11 28.1 101.5 25.11C103.5 23.34 104.84 20.88 104.84 17.63L104.84 17.63ZM116 7.74L107.21 7.74L107.21 28.25L116 28.25L116 7.74ZM43.77 28.25L24.37 0L13.48 0L16.49 3.45L-0.58 28.25L9.23 28.25L12.15 23.6L30.65 23.6L33.64 28.25L43.77 28.25L43.77 28.25ZM69.48 19.67L69.48 7.74L60.97 7.74L60.97 16.9C60.97 19.52 60.86 20.25 60.7 20.93C60.11 22.81 58.06 23.65 55.95 23.65C53.04 23.65 51.69 22.55 51.16 20.82C50.99 20.25 50.94 19.62 50.89 18.99C50.83 18.31 50.89 17.58 50.89 16.79L50.89 7.74L42.26 7.74L42.26 19.72C42.26 22.39 43.18 24.38 44.69 25.74C47.28 28.2 51.64 28.94 55.68 28.94C60.59 28.94 64.36 28.25 67.06 25.69C68.46 24.38 69.48 22.66 69.48 19.67L69.48 19.67ZM96.43 17.89C96.43 20.04 94.98 21.66 93.14 22.55C91.64 23.34 89.86 23.54 88.29 23.54C86.73 23.54 84.9 23.23 83.39 22.5C81.56 21.61 80.15 19.88 80.15 18C80.15 15.75 81.93 13.97 84.03 13.08C85.33 12.5 86.89 12.29 88.13 12.29C89.32 12.29 91.04 12.45 92.39 12.97C94.81 13.97 96.43 15.85 96.43 17.89ZM27.23 18.08L15.51 18.08L21.35 8.72L27.23 18.08L27.23 18.08Z" fill="#D6DAE5" fill-opacity="1.000000" fill-rule="evenodd"/>
</svg>
