<svg width="117.000000" height="29.000000" viewBox="0 0 117 29" fill="none" xmlns="http://www.w3.org/2000/svg" xmlns:xlink="http://www.w3.org/1999/xlink">
	<desc>
			Created with Pixso.
	</desc>
	<defs/>
	<path id="Vector" d="M14.93 23.2C14.76 23.2 14.67 23.28 14.67 23.28C14.67 23.28 12.54 24.94 8.7 24.94C4.86 24.94 2.73 23.28 2.73 23.28C2.73 23.28 2.56 23.2 2.47 23.2C2.3 23.2 2.13 23.28 2.13 23.53L2.13 23.61C2.47 25.35 2.73 26.59 2.73 26.76C2.98 28 5.54 29 8.61 29C11.69 29 14.25 28 14.5 26.76C14.5 26.59 14.76 25.35 15.09 23.61L15.09 23.53C15.18 23.36 15.09 23.2 14.92 23.2L14.93 23.2ZM32.25 19.14C33.36 18.56 33.78 17.73 33.78 16.48L33.78 14.74C33.78 12.26 32.25 11.02 29.01 11.02L22.52 11.02C22.27 11.02 22.09 11.18 22.09 11.43L22.09 27.67C22.09 27.92 22.27 28.09 22.52 28.09L29.52 28.09C32.59 28.09 34.38 26.59 34.38 24.03L34.38 22.28C34.38 20.79 33.61 19.63 32.25 19.14L32.25 19.14ZM38.9 15.49L36.26 15.49C36.01 15.49 35.83 15.66 35.83 15.91L35.83 27.67C35.83 27.92 36.01 28.09 36.26 28.09L38.91 28.09C39.17 28.09 39.34 27.92 39.34 27.67L39.34 15.9C39.34 15.66 39.17 15.49 38.91 15.49L38.9 15.49ZM102.48 15.24C98.9 15.24 97.1 16.98 97.1 20.21L97.1 23.44C97.1 26.76 98.9 28.33 102.65 28.33C104.19 28.33 105.81 28.09 107.18 27.59C107.35 27.5 107.52 27.34 107.43 27.09L107 25.27C107 25.18 106.92 25.02 106.83 25.02C106.75 24.93 106.58 24.93 106.49 24.93C105.3 25.27 104.1 25.43 103 25.43C101.03 25.43 100.69 24.85 100.69 23.53L100.69 23.11L107.26 23.11C107.52 23.11 107.69 22.95 107.69 22.7L107.69 20.38C107.6 16.9 105.98 15.24 102.48 15.24L102.48 15.24ZM55.63 25.35C54.95 25.35 54.44 25.35 53.93 25.27L53.93 18.88C54.7 18.55 55.72 18.22 56.49 18.22C57.52 18.22 57.94 18.63 57.94 19.54L57.94 23.27C57.94 24.68 57.6 25.34 55.64 25.34L55.63 25.35ZM116.3 25.6C116.3 25.52 116.22 25.35 116.13 25.27C116.05 25.18 115.88 25.18 115.79 25.18C115.28 25.26 114.86 25.35 114.51 25.35C113.83 25.35 113.58 25.1 113.58 24.44L113.58 18.22L116.13 18.22C116.39 18.22 116.56 18.05 116.56 17.8L116.56 15.9C116.56 15.65 116.39 15.49 116.13 15.49L113.57 15.49L113.57 12.51C113.57 12.34 113.49 12.25 113.4 12.17C113.32 12.09 113.15 12.09 113.06 12.09L110.42 12.42C110.16 12.42 109.99 12.67 109.99 12.84L109.99 15.49L108.54 15.49C108.29 15.49 108.11 15.65 108.11 15.9L108.11 17.81C108.11 18.06 108.29 18.22 108.54 18.22L109.99 18.22L109.99 24.85C109.99 27.09 111.18 28.25 113.66 28.25C114.34 28.25 115.53 28.08 116.3 27.83C116.47 27.75 116.65 27.58 116.56 27.33L116.3 25.6L116.3 25.6ZM48.81 25.6C48.81 25.52 48.73 25.35 48.64 25.27C48.56 25.18 48.39 25.18 48.3 25.18C47.87 25.26 47.36 25.35 47.02 25.35C46.34 25.35 46.08 25.1 46.08 24.44L46.08 18.22L48.64 18.22C48.9 18.22 49.07 18.05 49.07 17.8L49.07 15.9C49.07 15.65 48.9 15.49 48.64 15.49L46.08 15.49L46.08 12.51C46.08 12.34 45.99 12.25 45.91 12.17C45.82 12.09 45.65 12.09 45.57 12.09L42.92 12.42C42.67 12.42 42.5 12.67 42.5 12.84L42.5 15.49L41.04 15.49C40.79 15.49 40.62 15.65 40.62 15.9L40.62 17.81C40.62 18.06 40.79 18.22 41.04 18.22L42.49 18.22L42.49 24.85C42.49 27.09 43.69 28.25 46.16 28.25C46.84 28.25 48.04 28.08 48.8 27.83C48.98 27.75 49.14 27.58 49.06 27.33L48.8 25.6L48.81 25.6ZM84.22 25.43C84.22 25.35 84.14 25.18 84.05 25.1C83.97 25.02 83.8 25.02 83.71 25.02C82.94 25.18 82.18 25.27 81.41 25.27C79.7 25.27 79.27 24.85 79.27 23.44L79.27 20.05C79.27 18.64 79.79 18.22 81.41 18.22C81.83 18.22 82.77 18.31 83.71 18.47C83.8 18.47 83.97 18.47 84.05 18.39C84.14 18.31 84.22 18.22 84.22 18.06L84.56 16.07C84.56 15.82 84.48 15.66 84.22 15.57C83.2 15.24 82 15.16 81.32 15.16C77.31 15.16 75.69 16.57 75.69 20.05L75.69 23.36C75.69 26.84 77.31 28.25 81.32 28.25C82.26 28.25 83.37 28.08 84.22 27.83C84.48 27.75 84.56 27.59 84.56 27.34L84.22 25.43L84.22 25.43ZM25.69 25.1L28.85 25.1C30.21 25.1 30.72 24.77 30.72 23.69L30.72 22.45C30.72 21.37 30.3 20.95 29.1 20.95L27.99 20.95C27.73 20.95 27.56 20.78 27.56 20.54L27.56 18.48C27.56 18.23 27.73 18.06 27.99 18.06L28.59 18.06C29.7 18.06 30.12 17.65 30.12 16.65L30.12 15.16C30.12 14.58 29.96 14 28.59 14L25.68 14L25.68 25.1L25.69 25.1ZM73.64 15.49L71 15.49C70.74 15.49 70.57 15.66 70.57 15.91L70.57 24.02C69.63 24.52 68.27 25.02 67.5 25.02C66.9 25.02 66.64 24.77 66.64 24.19L66.64 15.91C66.64 15.66 66.47 15.5 66.22 15.5L63.57 15.5C63.31 15.5 63.14 15.66 63.14 15.91L63.14 24.53C63.14 27.01 64.16 28.34 66.21 28.34C67.58 28.34 69.54 27.84 71.16 27.1L71.33 27.76C71.42 27.92 71.59 28.09 71.76 28.09L73.72 28.09C73.98 28.09 74.15 27.92 74.15 27.68L74.15 15.9C74.06 15.74 73.89 15.49 73.64 15.49L73.64 15.49ZM8.7 9.53C3.92 9.53 0 10.77 0 12.34C0 12.76 1.02 18.64 1.45 20.96C1.62 22.03 4.43 23.53 8.7 23.53C12.96 23.53 15.7 22.04 15.95 20.96C16.37 18.64 17.4 12.76 17.4 12.35C17.31 10.77 13.47 9.53 8.69 9.53L8.7 9.53ZM8.7 21.62C7.17 21.62 5.97 20.46 5.97 18.97C5.97 17.48 7.16 16.32 8.7 16.32C10.24 16.32 11.43 17.48 11.43 18.97C11.43 20.38 10.24 21.61 8.7 21.61L8.7 21.62ZM96.59 27.34L93.09 21.7L96.5 16.16C96.59 15.99 96.59 15.83 96.5 15.74C96.42 15.58 96.25 15.5 96.08 15.5L93.18 15.5C93 15.5 92.83 15.58 92.75 15.74L89.51 21.22L89.51 11.1C89.51 10.85 89.33 10.68 89.08 10.68L86.43 10.68C86.18 10.68 86 10.85 86 11.1L86 27.58C86 27.83 86.18 28 86.43 28L89.08 28C89.33 28 89.5 27.83 89.5 27.58L89.5 22.2L92.91 27.83C93 28 93.17 28.08 93.26 28.08L96.16 28.08C96.41 28.08 96.58 27.92 96.58 27.67C96.67 27.5 96.67 27.42 96.58 27.34L96.59 27.34ZM100.6 20.3L100.6 19.88C100.6 18.64 101.2 18.15 102.48 18.15C103.93 18.15 104.18 18.81 104.18 19.89L104.18 20.31L100.6 20.31L100.6 20.3ZM8.7 17.56C9.45 17.56 10.07 18.16 10.07 18.89C10.07 19.63 9.45 20.22 8.7 20.22C7.95 20.22 7.34 19.63 7.34 18.89C7.34 18.16 7.95 17.56 8.7 17.56ZM57.42 15.25C56.14 15.25 54.78 15.58 53.93 15.91L53.93 11.19C53.93 10.94 53.75 10.77 53.5 10.77L50.85 10.77C50.6 10.77 50.42 10.94 50.42 11.19L50.42 27.59C50.42 27.84 50.6 28.01 50.77 28.01C52.39 28.26 54.35 28.42 55.46 28.42C60.41 28.42 61.43 26.35 61.43 23.29L61.43 19.72C61.43 16.74 60.07 15.25 57.42 15.25L57.42 15.25ZM36.26 13.75C36.01 13.75 35.83 13.59 35.83 13.34L35.83 11.1C35.83 10.85 36.01 10.68 36.26 10.68L38.91 10.68C39.16 10.68 39.34 10.93 39.34 11.1L39.34 13.34C39.34 13.58 39.16 13.75 38.91 13.75L36.26 13.75L36.26 13.75ZM8.7 13.17C5.63 13.17 3.15 12.67 3.15 12.01C3.15 11.35 5.63 10.85 8.7 10.85C11.77 10.85 14.25 11.35 14.25 12.01C14.25 12.67 11.77 13.17 8.7 13.17L8.7 13.17ZM42.91 6.63C42.49 6.63 41.81 6.46 41.46 6.21C41.38 6.21 41.38 6.13 41.38 6.04L41.55 5.38L41.63 5.3L41.8 5.3C42.23 5.39 42.66 5.47 43.08 5.47C43.6 5.47 43.6 5.31 43.6 5.05C43.6 4.89 43.6 4.72 42.83 4.56C41.64 4.31 41.47 3.98 41.47 3.07C41.47 2.24 41.72 1.66 43.26 1.66C43.69 1.66 44.28 1.74 44.63 1.83C44.63 1.83 44.71 1.91 44.71 1.99L44.62 2.74L44.54 2.82L44.37 2.82C44.22 2.82 44.04 2.81 43.85 2.79L43.69 2.77C43.5 2.75 43.32 2.74 43.17 2.74C42.66 2.74 42.66 2.82 42.66 3.07C42.66 3.4 42.66 3.4 43.26 3.57C44.54 3.9 44.7 4.15 44.7 5.14C44.7 6.05 44.37 6.63 42.95 6.63L42.91 6.63L42.91 6.63ZM39.16 6.63C38.65 6.63 38.05 6.46 37.45 6.21C37.37 6.21 37.37 6.13 37.37 6.04L37.54 5.38L37.63 5.3L37.8 5.3C38.23 5.39 38.65 5.47 39.08 5.47C39.59 5.47 39.59 5.31 39.59 5.05C39.59 4.89 39.59 4.72 38.82 4.56C37.63 4.31 37.46 3.98 37.46 3.07C37.46 2.24 37.72 1.66 39.25 1.66C39.68 1.66 40.28 1.74 40.62 1.83C40.7 1.83 40.79 1.91 40.79 1.99L40.7 2.74L40.62 2.82L40.53 2.82C40.38 2.82 40.2 2.81 40.01 2.79L39.85 2.77C39.67 2.76 39.48 2.74 39.33 2.74C38.81 2.74 38.81 2.82 38.81 3.07C38.81 3.4 38.81 3.4 39.41 3.57C40.69 3.9 40.86 4.15 40.95 5.14C40.95 6.05 40.61 6.63 39.19 6.64L39.16 6.64L39.16 6.63ZM54.6 1.74C54.09 1.74 53.41 1.9 52.73 2.15L52.64 1.9C52.64 1.82 52.56 1.82 52.47 1.82L51.7 1.82C51.62 1.82 51.53 1.9 51.53 1.98L51.53 6.38C51.53 6.46 51.62 6.54 51.7 6.54L52.73 6.54C52.81 6.54 52.9 6.46 52.9 6.38L52.9 3.31C53.24 3.14 53.75 2.98 54.09 2.98C54.35 2.98 54.43 3.06 54.43 3.31L54.43 6.38C54.43 6.46 54.52 6.54 54.6 6.54L55.62 6.54C55.71 6.54 55.8 6.46 55.8 6.38L55.8 3.14C55.71 2.15 55.37 1.73 54.6 1.73L54.6 1.74ZM46.41 1.82L45.39 1.82C45.3 1.82 45.22 1.9 45.22 1.98L45.22 6.38C45.22 6.46 45.3 6.54 45.39 6.54L46.42 6.54C46.51 6.54 46.59 6.46 46.59 6.38L46.59 1.98C46.59 1.9 46.51 1.82 46.42 1.82L46.41 1.82ZM32.42 0L31.39 0C31.31 0 31.22 0.08 31.22 0.16L31.22 6.38C31.22 6.46 31.31 6.54 31.39 6.54L32.42 6.54C32.5 6.54 32.59 6.46 32.59 6.38L32.59 0.16C32.59 0.08 32.5 0 32.41 0L32.42 0ZM25.93 0.25C25.93 0.16 25.85 0.16 25.76 0.16L24.23 0.16C24.14 0.16 24.06 0.25 24.06 0.25L22.09 6.29L22.09 6.46C22.09 6.54 22.17 6.54 22.26 6.54L23.37 6.54C23.45 6.54 23.54 6.46 23.54 6.46L24.9 1.98C24.9 1.98 24.9 1.9 25.07 1.9C25.16 1.9 25.24 1.98 25.24 1.98L25.84 4.06L24.99 4.06C24.9 4.06 24.81 4.14 24.81 4.14L24.56 4.96L24.56 5.12C24.56 5.12 24.64 5.21 24.73 5.21L26.18 5.21L26.52 6.37C26.52 6.45 26.6 6.45 26.69 6.45L27.8 6.45C27.89 6.45 27.89 6.45 27.97 6.37L27.97 6.2L25.93 0.24L25.93 0.25ZM34.72 5.55C35.15 5.55 35.41 5.46 35.58 5.38L35.58 4.72L34.72 4.72C34.38 4.72 34.3 4.88 34.3 5.13C34.3 5.46 34.38 5.55 34.72 5.55L34.72 5.55L34.72 5.55ZM30.63 5.55C30.63 5.46 30.63 5.46 30.54 5.46L30.37 5.46C30.2 5.55 30.03 5.55 29.86 5.55C29.6 5.55 29.52 5.46 29.52 5.22L29.52 2.81L30.46 2.81C30.54 2.81 30.63 2.73 30.63 2.65L30.63 1.98C30.63 1.9 30.54 1.82 30.46 1.82L29.52 1.82L29.52 0.66C29.52 0.58 29.52 0.58 29.43 0.58C29.43 0.58 29.35 0.5 29.26 0.58L28.24 0.74C28.15 0.74 28.07 0.83 28.07 0.91L28.07 1.9L27.56 1.9C27.47 1.9 27.39 1.99 27.39 2.07L27.39 2.82C27.39 2.9 27.48 2.99 27.56 2.99L28.08 2.99L28.08 5.47C28.08 6.3 28.5 6.71 29.44 6.71C29.7 6.71 30.13 6.63 30.38 6.55C30.72 6.38 30.72 6.38 30.72 6.3L30.64 5.55L30.63 5.55ZM48.8 5.55C49.23 5.55 49.48 5.46 49.65 5.38L49.65 4.72L48.8 4.72C48.46 4.72 48.38 4.88 48.38 5.13C48.38 5.46 48.46 5.55 48.79 5.55L48.8 5.55L48.8 5.55ZM34.98 1.74C34.47 1.74 33.87 1.82 33.44 1.9C33.36 1.9 33.27 1.98 33.36 2.07L33.45 2.73C33.45 2.81 33.45 2.81 33.54 2.81L33.62 2.81C34.05 2.73 34.48 2.73 34.82 2.73C35.5 2.73 35.67 2.9 35.67 3.31L35.67 3.73L34.64 3.73C33.62 3.73 33.19 4.14 33.19 5.05C33.19 5.96 33.7 6.46 34.47 6.46C34.98 6.46 35.41 6.29 35.83 6.13L35.83 6.29C35.83 6.38 35.92 6.38 36 6.38L36.77 6.38C36.85 6.38 36.95 6.29 36.95 6.21L36.95 3.39C36.95 2.15 36.44 1.73 34.99 1.73L34.98 1.74ZM48.97 1.74C48.46 1.74 47.86 1.82 47.44 1.9C47.34 1.9 47.26 1.98 47.34 2.07L47.43 2.73C47.43 2.81 47.43 2.81 47.51 2.81L47.6 2.81C48.03 2.73 48.45 2.73 48.79 2.73C49.47 2.73 49.65 2.9 49.65 3.31L49.65 3.73L48.63 3.73C47.61 3.73 47.18 4.14 47.18 5.05C47.18 5.96 47.69 6.46 48.46 6.46C48.97 6.46 49.4 6.29 49.83 6.13L49.91 6.29C49.91 6.38 50 6.38 50.08 6.38L50.85 6.38C50.94 6.38 51.02 6.29 51.02 6.21L51.02 3.39C50.94 2.15 50.42 1.73 48.97 1.73L48.97 1.74ZM46.41 0L45.39 0C45.3 0 45.22 0.08 45.22 0.16L45.22 0.99C45.22 1.07 45.3 1.15 45.39 1.15L46.42 1.15C46.51 1.15 46.59 1.07 46.59 0.98L46.59 0.16C46.59 0.08 46.51 0 46.42 0L46.41 0Z" fill="#D6DAE5" fill-opacity="1.000000" fill-rule="evenodd"/>
</svg>
