<svg width="116.000000" height="22.000000" viewBox="0 0 116 22" fill="none" xmlns="http://www.w3.org/2000/svg" xmlns:xlink="http://www.w3.org/1999/xlink">
	<desc>
			Created with Pixso.
	</desc>
	<defs/>
	<path id="Vector" d="M114.31 19.07C115.11 19.07 115.74 19.7 115.74 20.49C115.74 21.28 115.11 21.9 114.3 21.9C113.51 21.9 112.87 21.28 112.87 20.49C112.87 19.7 113.51 19.07 114.3 19.07L114.31 19.07ZM22.37 21.71L18.44 21.71L18.27 20.75C16.47 21.71 14.87 21.87 13.81 21.87C10.92 21.87 9.39 20 9.39 17.42C9.39 14.37 11.18 13.28 14.39 13.28L17.65 13.28L17.65 12.62C17.65 11.06 17.47 10.61 14.99 10.61L10.96 10.61L11.36 6.79L15.77 6.79C21.19 6.79 22.37 8.45 22.37 12.65L22.37 21.71L22.37 21.71ZM80.99 15.72C80.99 18.83 79.66 21.85 74.12 21.85C68.57 21.85 67.22 18.83 67.22 15.72L67.22 12.71C67.22 9.6 68.57 6.58 74.12 6.58C79.67 6.58 81 9.6 81 12.72L81 15.72L80.99 15.72ZM96.1 15.72C96.1 18.83 94.78 21.85 89.24 21.85C83.69 21.85 82.34 18.83 82.34 15.72L82.34 12.71C82.34 9.6 83.68 6.58 89.23 6.58C94.77 6.58 96.1 9.6 96.1 12.72L96.1 15.72L96.1 15.72ZM114.3 19.29C113.67 19.29 113.14 19.83 113.14 20.48C113.14 21.16 113.67 21.68 114.31 21.68C114.96 21.7 115.48 21.17 115.48 20.5C115.48 19.84 114.96 19.31 114.31 19.31L114.3 19.31L114.3 19.29ZM6.24 21.68L1.52 21.68L1.52 10.61L-0.84 10.61L-0.84 6.79L1.52 6.79L1.52 4.5C1.52 1.39 2.85 -0.47 6.63 -0.47L9.79 -0.47L9.79 3.35L7.82 3.35C6.34 3.35 6.25 3.88 6.25 4.88L6.23 6.79L9.8 6.79L9.38 10.61L6.23 10.61L6.23 21.68L6.24 21.68ZM114.03 21.31L113.77 21.31L113.77 19.73C113.92 19.71 114.05 19.7 114.25 19.7C114.5 19.7 114.66 19.74 114.76 19.81C114.86 19.88 114.9 19.99 114.9 20.14C114.9 20.35 114.77 20.47 114.59 20.52L114.59 20.54C114.73 20.56 114.83 20.68 114.87 20.92C114.9 21.16 114.94 21.26 114.97 21.31L114.69 21.31C114.66 21.26 114.61 21.11 114.58 20.91C114.55 20.7 114.44 20.63 114.23 20.63L114.05 20.63L114.05 21.31L114.03 21.31ZM114.03 20.44L114.22 20.44C114.43 20.44 114.61 20.36 114.61 20.16C114.61 20.03 114.51 19.89 114.22 19.89C114.14 19.89 114.08 19.89 114.03 19.9L114.03 20.44ZM14.11 17.36C14.11 18.19 14.52 18.63 15.41 18.63C16.38 18.63 16.95 18.32 17.65 18.01L17.65 16.34L15.54 16.34C14.55 16.34 14.11 16.51 14.11 17.36L14.11 17.36ZM59.18 10.4C58.21 10.4 57.52 10.7 56.82 11.02L56.82 18.05C57.49 18.12 57.88 18.12 58.52 18.12C60.83 18.12 61.14 17.09 61.14 15.66L61.14 12.29C61.14 11.24 60.78 10.39 59.18 10.39L59.18 10.4ZM74.1 10.4C72.5 10.4 71.94 11.25 71.94 12.29L71.94 16.14C71.94 17.21 72.5 18.05 74.1 18.05C75.71 18.05 76.26 17.21 76.26 16.14L76.26 12.29C76.26 11.23 75.7 10.38 74.1 10.38L74.1 10.4ZM35.75 10.87C33.3 10.47 32.6 10.38 31.42 10.38C29.3 10.38 28.66 10.83 28.66 12.57L28.66 15.86C28.66 17.6 29.3 18.05 31.42 18.05C32.6 18.05 33.3 17.97 35.75 17.56L35.75 21.28C33.6 21.75 32.21 21.87 31.03 21.87C25.96 21.87 23.95 19.29 23.95 15.56L23.95 12.89C23.95 9.15 25.96 6.56 31.03 6.56C32.21 6.56 33.6 6.68 35.75 7.15L35.75 10.87ZM50.52 15.56L41.87 15.56L41.87 15.86C41.87 17.6 42.5 18.05 44.62 18.05C46.52 18.05 47.68 17.97 50.12 17.56L50.12 21.28C47.77 21.75 46.54 21.87 44.23 21.87C39.16 21.87 37.16 19.29 37.16 15.56L37.16 12.5C37.16 9.23 38.65 6.55 43.85 6.55C49.05 6.55 50.53 9.2 50.53 12.5L50.53 15.56L50.52 15.56ZM89.22 10.4C87.61 10.4 87.06 11.25 87.06 12.29L87.06 16.15C87.06 17.22 87.61 18.07 89.22 18.07C90.82 18.07 91.39 17.22 91.39 16.15L91.39 12.29C91.39 11.24 90.82 10.39 89.22 10.39L89.22 10.4ZM111.62 21.68L106.5 21.68L102.18 14.68L102.18 21.68L97.46 21.68L97.46 0.67L102.18 -0.09L102.18 13.43L106.5 6.78L111.6 6.78L106.88 14.04L111.6 21.68L111.62 21.68ZM43.83 10.01C42.23 10.01 41.87 10.86 41.87 11.92L41.87 12.51L45.8 12.51L45.8 11.91C45.8 10.87 45.44 10.01 43.83 10.01L43.83 10.01ZM65.87 15.63C65.87 19.24 64.79 21.88 58.34 21.88C56.02 21.88 54.65 21.67 52.08 21.29L52.08 0.67L56.8 -0.09L56.8 7.12C57.82 6.75 59.14 6.57 60.34 6.57C65.06 6.57 65.85 8.62 65.85 11.91L65.85 15.65L65.87 15.63Z" fill="#D6DAE5" fill-opacity="1.000000" fill-rule="evenodd"/>
</svg>
