<svg width="17.000000" height="13.000000" viewBox="0 0 17 13" fill="none" xmlns="http://www.w3.org/2000/svg" xmlns:xlink="http://www.w3.org/1999/xlink">
	<desc>
			Created with Pixso.
	</desc>
	<defs/>
	<path id="path14" d="M16 1.1L15.34 1.1C15.1 1.1 14.76 1.45 14.76 1.67L14.76 9.65C14.76 9.87 15.1 10.17 15.34 10.17L16 10.17L16 12.07L10.08 12.07L10.08 10.17L11.32 10.17L11.32 1.78L11.26 1.78L8.36 12.07L6.13 12.07L3.27 1.78L3.2 1.78L3.2 10.17L4.44 10.17L4.44 12.07L-0.52 12.07L-0.52 10.17L0.12 10.17C0.38 10.17 0.72 9.87 0.72 9.65L0.72 1.67C0.72 1.45 0.38 1.1 0.12 1.1L-0.52 1.1L-0.52 -0.79L5.68 -0.79L7.71 6.65L7.77 6.65L9.82 -0.79L16 -0.79L16 1.1Z" fill="#757E9A" fill-opacity="1.000000" fill-rule="nonzero"/>
</svg>
