<svg width="17.000000" height="13.000000" viewBox="0 0 17 13" fill="none" xmlns="http://www.w3.org/2000/svg" xmlns:xlink="http://www.w3.org/1999/xlink">
	<desc>
			Created with Pixso.
	</desc>
	<defs/>
	<path id="Vector" d="M16.03 0.84C15.42 1.11 14.77 1.3 14.08 1.38C14.78 0.95 15.32 0.27 15.57 -0.54C14.92 -0.14 14.19 0.15 13.42 0.3C12.8 -0.37 11.92 -0.79 10.95 -0.79C9.08 -0.79 7.56 0.76 7.56 2.69C7.56 2.96 7.59 3.22 7.65 3.48C4.83 3.33 2.34 1.95 0.67 -0.16C0.38 0.36 0.21 0.95 0.21 1.59C0.21 2.8 0.81 3.86 1.71 4.49C1.16 4.47 0.64 4.31 0.18 4.05L0.18 4.1C0.18 5.78 1.35 7.19 2.9 7.51C2.61 7.59 2.31 7.63 2.01 7.63C1.79 7.63 1.58 7.61 1.37 7.57C1.8 8.95 3.05 9.96 4.53 9.98C3.37 10.92 1.91 11.47 0.33 11.47C0.05 11.47 -0.22 11.46 -0.48 11.43C1.02 12.41 2.8 12.99 4.71 12.99C10.94 12.99 14.35 7.69 14.35 3.09C14.35 2.94 14.34 2.79 14.34 2.64C15 2.15 15.57 1.53 16.03 0.84L16.03 0.84Z" fill="#6188FF" fill-opacity="1.000000" fill-rule="evenodd"/>
</svg>
