<svg width="14.000000" height="12.000000" viewBox="0 0 14 12" fill="none" xmlns="http://www.w3.org/2000/svg" xmlns:xlink="http://www.w3.org/1999/xlink">
	<desc>
			Created with Pixso.
	</desc>
	<defs/>
	<path id="Vector" d="M4.81 11.02C4.38 11.02 4.45 10.86 4.3 10.46L3.01 6.41L12.92 0.78L4.81 11.02Z" fill="#9399AB" fill-opacity="1.000000" fill-rule="nonzero"/>
	<path id="Vector" d="M4.81 11.02C5.15 11.02 5.3 10.87 5.49 10.7L7.29 9.02L5.04 7.72L4.81 11.02Z" fill="#70788E" fill-opacity="1.000000" fill-rule="nonzero"/>
	<path id="Vector" d="M5.04 7.72L10.49 11.57C11.11 11.9 11.56 11.73 11.72 11.02L13.93 1.03C14.16 0.16 13.59 -0.24 12.99 0.02L-0.03 4.82C-0.92 5.16 -0.91 5.64 -0.19 5.85L3.15 6.85L10.89 2.18C11.25 1.97 11.59 2.08 11.31 2.31L5.04 7.72Z" fill="#B6BAC7" fill-opacity="1.000000" fill-rule="nonzero"/>
</svg>
